<svg width="194" height="194" viewBox="0 0 194 194" fill="none" xmlns="http://www.w3.org/2000/svg">
<path d="M96.6 193.241C149.951 193.241 193.2 149.991 193.2 96.6406C193.2 43.2898 149.951 0.0405579 96.6 0.0405579C43.2493 0.0405579 0 43.2898 0 96.6406C0 149.991 43.2493 193.241 96.6 193.241Z" fill="url(#paint0_linear_9_3208)"/>
<path d="M128.21 81.1706C128.21 81.1706 144.43 79.2706 149.43 55.2806C153.45 35.9806 147.22 22.8606 134.87 13.2306C134.87 13.2306 155.36 23.0206 162.27 42.0606C169.18 61.1006 161.58 80.2806 153.74 94.1006L128.22 81.1606L128.21 81.1706Z" fill="#00456B"/>
<path d="M118.9 78.5805C101.48 71.6605 70.24 89.1305 69.09 58.8505C68.62 46.4105 76.1699 25.1905 90.2799 27.7405C98.3899 29.2105 104.98 38.4305 97.6899 55.2405C106.34 52.9905 118.42 22.3605 95.3299 14.7105C72.2399 7.06055 57.0199 21.0305 53.0099 33.1005C49.0099 45.1705 39.39 83.1105 63.49 88.9305C87.59 94.7505 107.22 86.6805 107.22 86.6805L118.9 78.5905V78.5805Z" fill="#00456B"/>
<path d="M185.63 134.121C183.68 127.601 179.52 117.401 170.79 106.191C155.15 86.1105 126.85 74.2405 102.69 79.8605C85.07 83.9605 66.79 84.3005 62.38 68.2805C59.1 56.3605 63.2 40.6105 70.31 30.2705C74.94 23.5505 87.51 16.3305 97.73 25.7905C111.52 38.5605 96.69 55.4705 96.69 55.4705L109.28 52.5605L116.51 31.5605L97.15 8.77054L71.4 11.9605L50.2 32.2405L49 79.2405L77.01 100.621L118.65 97.9605L150.57 143.331L171.65 157.491C177.29 150.541 182.03 142.711 185.63 134.131V134.121Z" fill="white"/>
<path d="M134.87 13.2306C134.87 13.2306 182.74 39.1406 149.46 89.5106L162.07 101.191C162.07 101.191 197.12 46.3006 134.86 13.2306H134.87Z" fill="white"/>
<path d="M177.3 149.771L177.39 149.541C177.27 142.881 176.16 136.131 173.95 129.471C162.2 93.9805 128.09 74.8905 88.4001 86.4805C69.5301 91.9905 57.1901 77.5905 55.0501 68.3405C54.3701 65.3905 52.2001 53.1705 57.6701 40.4505C61.9601 30.4905 72.4201 13.6005 89.4301 16.6005C100.81 18.6105 107.55 29.7705 105.87 41.2005C104.77 48.7205 97.7801 54.1105 97.7801 54.1105C94.1901 53.6805 91.4501 56.5505 95.0701 58.5005C98.1601 60.1605 100.2 65.9205 100.26 68.9905C100.31 72.0505 105.44 72.4705 107.23 66.6205C115 60.8705 120.74 52.3205 122.78 42.0905C126.09 25.4105 118.59 9.10055 105.14 0.400547C80.6501 -1.79945 56.3701 5.11055 37.8301 19.9605C-11.6699 59.6105 7.95006 111.031 19.9401 133.231C23.4001 139.641 25.7101 146.621 26.6101 153.851C27.0701 157.521 27.6701 161.201 28.4201 164.881L28.4901 165.161C39.2601 175.881 52.7101 184.221 68.2501 188.991C110.26 201.891 154.32 184.721 177.3 149.771Z" fill="#6FBAD8"/>
<path d="M98.55 119.571C101.494 119.571 103.88 117.184 103.88 114.241C103.88 111.297 101.494 108.911 98.55 108.911C95.6063 108.911 93.22 111.297 93.22 114.241C93.22 117.184 95.6063 119.571 98.55 119.571Z" fill="#00456B"/>
<path d="M31.38 127.361C7.27004 88.5206 10.57 43.0606 43.32 15.9106C41.44 17.1906 39.6 18.5406 37.82 19.9706C-11.68 59.6206 7.94006 111.041 19.9301 133.241C23.3901 139.651 25.7 146.631 26.6 153.861C27.06 157.531 27.66 161.211 28.41 164.891L28.4801 165.171C33.2901 169.961 38.6401 174.271 44.4601 178.001C44.8701 168.461 44 147.701 31.38 127.371V127.361Z" fill="#2A99BC"/>
<path d="M97.6099 150.961C97.6099 150.961 81.6499 172.531 79.9099 191.801C84.2199 192.561 88.5299 193.011 92.8199 193.181C90.5399 186.531 89.4799 173.781 97.6099 150.961Z" fill="#2A99BC"/>
<defs>
<linearGradient id="paint0_linear_9_3208" x1="-0.03" y1="96.6406" x2="193.22" y2="96.6406" gradientUnits="userSpaceOnUse">
<stop stop-color="#00507D"/>
<stop offset="1" stop-color="#50A0D2"/>
</linearGradient>
</defs>
</svg>
